<svg xmlns="http://www.w3.org/2000/svg" xmlns:xlink="http://www.w3.org/1999/xlink" width="48" zoomAndPan="magnify" viewBox="0 0 36 36.000001" height="48" preserveAspectRatio="xMidYMid meet" version="1.0"><defs><clipPath id="bf94fb996b"><path d="M 20 19.460938 L 32.085938 19.460938 L 32.085938 32 L 20 32 Z M 20 19.460938 " clip-rule="nonzero"/></clipPath><clipPath id="f188cdffe4"><path d="M 3.6875 0 L 26.757812 0 L 26.757812 34.054688 L 3.6875 34.054688 Z M 3.6875 0 " clip-rule="nonzero"/></clipPath></defs><g clip-path="url(#bf94fb996b)"><path fill="#000000" d="M 30.996094 24.691406 L 27.171875 24.691406 L 27.171875 20.839844 C 27.171875 20.691406 27.144531 20.550781 27.085938 20.417969 C 27.035156 20.28125 26.953125 20.164062 26.851562 20.058594 C 26.75 19.957031 26.632812 19.878906 26.5 19.820312 C 26.363281 19.761719 26.226562 19.738281 26.082031 19.738281 C 25.9375 19.738281 25.796875 19.761719 25.664062 19.820312 C 25.523438 19.878906 25.40625 19.957031 25.304688 20.058594 C 25.203125 20.164062 25.125 20.28125 25.070312 20.417969 C 25.015625 20.550781 24.984375 20.691406 24.984375 20.839844 L 24.984375 24.691406 L 21.164062 24.691406 C 21.019531 24.691406 20.882812 24.71875 20.742188 24.777344 C 20.609375 24.828125 20.492188 24.910156 20.390625 25.011719 C 20.289062 25.113281 20.207031 25.238281 20.15625 25.371094 C 20.097656 25.507812 20.070312 25.648438 20.070312 25.792969 C 20.070312 25.941406 20.097656 26.082031 20.15625 26.214844 C 20.207031 26.347656 20.289062 26.46875 20.390625 26.570312 C 20.492188 26.671875 20.609375 26.753906 20.742188 26.808594 C 20.882812 26.863281 21.019531 26.894531 21.164062 26.894531 L 24.984375 26.894531 L 24.984375 30.746094 C 24.984375 30.890625 25.015625 31.03125 25.070312 31.164062 C 25.125 31.300781 25.203125 31.421875 25.304688 31.523438 C 25.40625 31.628906 25.523438 31.707031 25.664062 31.761719 C 25.796875 31.820312 25.9375 31.847656 26.082031 31.847656 C 26.226562 31.847656 26.363281 31.820312 26.5 31.761719 C 26.632812 31.707031 26.75 31.628906 26.851562 31.523438 C 26.953125 31.421875 27.035156 31.300781 27.085938 31.164062 C 27.144531 31.03125 27.171875 30.890625 27.171875 30.746094 L 27.171875 26.894531 L 30.996094 26.894531 C 31.140625 26.894531 31.28125 26.863281 31.414062 26.808594 C 31.546875 26.753906 31.664062 26.671875 31.765625 26.570312 C 31.867188 26.46875 31.949219 26.347656 32 26.214844 C 32.058594 26.082031 32.085938 25.941406 32.085938 25.792969 C 32.085938 25.648438 32.058594 25.507812 32 25.371094 C 31.949219 25.238281 31.867188 25.113281 31.765625 25.011719 C 31.664062 24.910156 31.546875 24.828125 31.414062 24.777344 C 31.28125 24.71875 31.140625 24.691406 30.996094 24.691406 Z M 30.996094 24.691406 " fill-opacity="1" fill-rule="nonzero"/></g><g clip-path="url(#f188cdffe4)"><path fill="#000000" d="M 17.886719 31.847656 L 6.960938 31.847656 C 6.820312 31.847656 6.679688 31.820312 6.542969 31.761719 C 6.410156 31.707031 6.292969 31.628906 6.191406 31.523438 C 6.089844 31.421875 6.007812 31.300781 5.957031 31.164062 C 5.898438 31.03125 5.871094 30.890625 5.871094 30.746094 C 5.871094 29.949219 5.949219 29.164062 6.105469 28.382812 C 6.257812 27.605469 6.488281 26.847656 6.789062 26.113281 C 7.09375 25.382812 7.460938 24.679688 7.902344 24.019531 C 8.339844 23.359375 8.835938 22.75 9.394531 22.1875 C 9.949219 21.625 10.558594 21.125 11.214844 20.683594 C 11.871094 20.238281 12.5625 19.867188 13.289062 19.5625 C 14.019531 19.257812 14.769531 19.027344 15.542969 18.871094 C 16.316406 18.714844 17.097656 18.636719 17.886719 18.632812 C 18.234375 18.636719 18.582031 18.621094 18.925781 18.578125 C 19.273438 18.535156 19.617188 18.476562 19.957031 18.390625 C 20.296875 18.3125 20.625 18.210938 20.953125 18.085938 C 21.28125 17.964844 21.597656 17.824219 21.910156 17.664062 C 22.222656 17.507812 22.519531 17.328125 22.808594 17.128906 C 23.097656 16.933594 23.375 16.71875 23.640625 16.492188 C 23.902344 16.261719 24.152344 16.015625 24.390625 15.757812 C 24.621094 15.5 24.839844 15.226562 25.042969 14.941406 C 25.246094 14.65625 25.429688 14.359375 25.597656 14.050781 C 25.769531 13.742188 25.917969 13.425781 26.046875 13.101562 C 26.175781 12.773438 26.285156 12.441406 26.375 12.101562 C 26.46875 11.761719 26.539062 11.421875 26.589844 11.070312 C 26.640625 10.726562 26.667969 10.375 26.675781 10.023438 C 26.683594 9.671875 26.671875 9.324219 26.640625 8.972656 C 26.609375 8.625 26.554688 8.273438 26.480469 7.933594 C 26.40625 7.589844 26.3125 7.25 26.199219 6.921875 C 26.085938 6.585938 25.953125 6.261719 25.804688 5.949219 C 25.648438 5.632812 25.480469 5.324219 25.289062 5.027344 C 25.101562 4.734375 24.898438 4.449219 24.675781 4.179688 C 24.453125 3.910156 24.21875 3.652344 23.964844 3.410156 C 23.710938 3.164062 23.445312 2.941406 23.167969 2.730469 C 22.886719 2.519531 22.597656 2.324219 22.292969 2.152344 C 21.996094 1.976562 21.683594 1.820312 21.363281 1.679688 C 21.042969 1.542969 20.714844 1.425781 20.378906 1.328125 C 20.042969 1.226562 19.707031 1.148438 19.363281 1.089844 C 19.019531 1.03125 18.671875 0.996094 18.328125 0.976562 C 17.976562 0.960938 17.632812 0.964844 17.28125 0.992188 C 16.9375 1.015625 16.589844 1.058594 16.246094 1.128906 C 15.90625 1.195312 15.566406 1.28125 15.238281 1.390625 C 14.902344 1.496094 14.578125 1.621094 14.265625 1.769531 C 13.945312 1.914062 13.640625 2.082031 13.339844 2.265625 C 13.042969 2.449219 12.757812 2.648438 12.484375 2.867188 C 12.210938 3.082031 11.953125 3.316406 11.707031 3.566406 C 11.460938 3.8125 11.226562 4.078125 11.015625 4.351562 C 10.796875 4.628906 10.601562 4.917969 10.421875 5.21875 C 10.238281 5.519531 10.074219 5.832031 9.929688 6.148438 C 9.785156 6.46875 9.664062 6.796875 9.558594 7.128906 C 9.453125 7.464844 9.367188 7.804688 9.304688 8.148438 C 9.234375 8.496094 9.195312 8.84375 9.167969 9.195312 C 9.144531 9.542969 9.140625 9.894531 9.160156 10.246094 C 9.175781 10.597656 9.210938 10.945312 9.273438 11.292969 C 9.332031 11.636719 9.410156 11.980469 9.507812 12.3125 C 9.609375 12.652344 9.726562 12.984375 9.867188 13.300781 C 10.003906 13.625 10.160156 13.941406 10.335938 14.246094 C 10.511719 14.546875 10.703125 14.835938 10.910156 15.117188 C 11.125 15.398438 11.347656 15.667969 11.589844 15.921875 C 11.832031 16.171875 12.085938 16.410156 12.355469 16.636719 C 12.625 16.855469 12.90625 17.0625 13.199219 17.25 C 12.511719 17.496094 11.84375 17.789062 11.199219 18.136719 C 10.554688 18.488281 9.9375 18.882812 9.355469 19.324219 C 8.773438 19.765625 8.226562 20.253906 7.714844 20.777344 C 7.203125 21.304688 6.738281 21.871094 6.3125 22.472656 C 5.890625 23.074219 5.515625 23.703125 5.1875 24.363281 C 4.859375 25.019531 4.585938 25.703125 4.363281 26.402344 C 4.140625 27.105469 3.972656 27.820312 3.859375 28.546875 C 3.742188 29.277344 3.6875 30.011719 3.6875 30.746094 C 3.6875 31.183594 3.769531 31.605469 3.9375 32.007812 C 4.101562 32.414062 4.339844 32.773438 4.644531 33.082031 C 4.953125 33.390625 5.308594 33.628906 5.707031 33.796875 C 6.113281 33.960938 6.53125 34.046875 6.960938 34.046875 L 17.886719 34.046875 C 18.03125 34.046875 18.171875 34.019531 18.304688 33.960938 C 18.4375 33.910156 18.554688 33.828125 18.65625 33.726562 C 18.761719 33.625 18.839844 33.503906 18.898438 33.371094 C 18.949219 33.234375 18.980469 33.09375 18.980469 32.949219 C 18.980469 32.800781 18.949219 32.660156 18.898438 32.527344 C 18.839844 32.394531 18.761719 32.273438 18.65625 32.167969 C 18.554688 32.066406 18.4375 31.988281 18.304688 31.929688 C 18.171875 31.875 18.03125 31.847656 17.886719 31.847656 Z M 11.332031 9.828125 C 11.332031 9.394531 11.375 8.964844 11.460938 8.539062 C 11.542969 8.113281 11.667969 7.703125 11.832031 7.300781 C 11.996094 6.902344 12.195312 6.523438 12.4375 6.160156 C 12.675781 5.800781 12.949219 5.464844 13.253906 5.15625 C 13.558594 4.851562 13.886719 4.578125 14.246094 4.335938 C 14.601562 4.097656 14.980469 3.890625 15.378906 3.726562 C 15.777344 3.5625 16.1875 3.4375 16.609375 3.351562 C 17.03125 3.269531 17.457031 3.222656 17.886719 3.222656 C 18.316406 3.222656 18.742188 3.269531 19.167969 3.351562 C 19.589844 3.4375 19.996094 3.5625 20.394531 3.726562 C 20.792969 3.890625 21.167969 4.097656 21.527344 4.335938 C 21.882812 4.578125 22.214844 4.851562 22.519531 5.15625 C 22.828125 5.464844 23.097656 5.800781 23.335938 6.160156 C 23.574219 6.523438 23.777344 6.902344 23.941406 7.300781 C 24.109375 7.703125 24.230469 8.113281 24.3125 8.539062 C 24.398438 8.964844 24.441406 9.394531 24.441406 9.828125 C 24.441406 10.261719 24.398438 10.691406 24.3125 11.117188 C 24.230469 11.542969 24.109375 11.957031 23.941406 12.355469 C 23.777344 12.757812 23.574219 13.140625 23.335938 13.5 C 23.097656 13.859375 22.828125 14.191406 22.519531 14.5 C 22.214844 14.808594 21.882812 15.082031 21.527344 15.320312 C 21.167969 15.5625 20.792969 15.765625 20.394531 15.933594 C 19.996094 16.101562 19.589844 16.222656 19.167969 16.308594 C 18.742188 16.390625 18.316406 16.433594 17.886719 16.433594 C 17.457031 16.433594 17.03125 16.390625 16.609375 16.304688 C 16.1875 16.222656 15.777344 16.097656 15.378906 15.929688 C 14.980469 15.765625 14.605469 15.558594 14.246094 15.320312 C 13.886719 15.078125 13.558594 14.804688 13.253906 14.5 C 12.949219 14.191406 12.679688 13.855469 12.441406 13.496094 C 12.199219 13.140625 12 12.753906 11.832031 12.355469 C 11.667969 11.957031 11.542969 11.542969 11.460938 11.117188 C 11.375 10.691406 11.332031 10.261719 11.332031 9.828125 Z M 11.332031 9.828125 " fill-opacity="1" fill-rule="nonzero"/></g></svg>