<svg xmlns="http://www.w3.org/2000/svg" xmlns:xlink="http://www.w3.org/1999/xlink" width="48" zoomAndPan="magnify" viewBox="0 0 36 36.000001" height="48" preserveAspectRatio="xMidYMid meet" version="1.0"><defs><clipPath id="bb0dab270c"><path d="M 20 20 L 32.476562 20 L 32.476562 33 L 20 33 Z M 20 20 " clip-rule="nonzero"/></clipPath><clipPath id="1aceccc7c5"><path d="M 3.289062 0 L 27 0 L 27 35 L 3.289062 35 Z M 3.289062 0 " clip-rule="nonzero"/></clipPath></defs><g clip-path="url(#bb0dab270c)"><path fill="#000000" d="M 31.355469 25.378906 L 27.425781 25.378906 L 27.425781 21.417969 C 27.425781 21.265625 27.398438 21.121094 27.339844 20.984375 C 27.285156 20.84375 27.203125 20.722656 27.097656 20.617188 C 26.992188 20.511719 26.871094 20.429688 26.734375 20.371094 C 26.59375 20.3125 26.453125 20.285156 26.304688 20.285156 C 26.15625 20.285156 26.011719 20.3125 25.875 20.371094 C 25.734375 20.429688 25.613281 20.511719 25.507812 20.617188 C 25.402344 20.722656 25.324219 20.84375 25.265625 20.984375 C 25.210938 21.121094 25.179688 21.265625 25.179688 21.417969 L 25.179688 25.378906 L 21.25 25.378906 C 21.101562 25.378906 20.960938 25.40625 20.820312 25.464844 C 20.683594 25.519531 20.5625 25.601562 20.457031 25.707031 C 20.351562 25.8125 20.269531 25.9375 20.214844 26.074219 C 20.15625 26.214844 20.128906 26.359375 20.128906 26.507812 C 20.128906 26.660156 20.15625 26.804688 20.214844 26.941406 C 20.269531 27.078125 20.351562 27.203125 20.457031 27.308594 C 20.5625 27.414062 20.683594 27.496094 20.820312 27.554688 C 20.960938 27.609375 21.101562 27.640625 21.25 27.640625 L 25.179688 27.640625 L 25.179688 31.601562 C 25.179688 31.75 25.210938 31.894531 25.265625 32.03125 C 25.324219 32.171875 25.402344 32.292969 25.507812 32.398438 C 25.613281 32.507812 25.734375 32.585938 25.875 32.644531 C 26.011719 32.703125 26.15625 32.730469 26.304688 32.730469 C 26.453125 32.730469 26.59375 32.703125 26.734375 32.644531 C 26.871094 32.585938 26.992188 32.507812 27.097656 32.398438 C 27.203125 32.292969 27.285156 32.171875 27.339844 32.03125 C 27.398438 31.894531 27.425781 31.75 27.425781 31.601562 L 27.425781 27.640625 L 31.355469 27.640625 C 31.503906 27.640625 31.648438 27.609375 31.785156 27.554688 C 31.921875 27.496094 32.042969 27.414062 32.148438 27.308594 C 32.253906 27.203125 32.335938 27.078125 32.390625 26.941406 C 32.449219 26.804688 32.476562 26.660156 32.476562 26.507812 C 32.476562 26.359375 32.449219 26.214844 32.390625 26.074219 C 32.335938 25.9375 32.253906 25.8125 32.148438 25.707031 C 32.042969 25.601562 31.921875 25.519531 31.785156 25.464844 C 31.648438 25.40625 31.503906 25.378906 31.355469 25.378906 Z M 31.355469 25.378906 " fill-opacity="1" fill-rule="nonzero"/></g><g clip-path="url(#1aceccc7c5)"><path fill="#000000" d="M 17.882812 32.730469 L 6.65625 32.730469 C 6.507812 32.730469 6.363281 32.703125 6.226562 32.644531 C 6.089844 32.585938 5.96875 32.507812 5.863281 32.398438 C 5.757812 32.292969 5.675781 32.171875 5.621094 32.03125 C 5.5625 31.894531 5.535156 31.75 5.535156 31.601562 C 5.535156 30.78125 5.613281 29.972656 5.773438 29.171875 C 5.933594 28.371094 6.167969 27.59375 6.476562 26.839844 C 6.789062 26.085938 7.167969 25.367188 7.621094 24.6875 C 8.070312 24.007812 8.582031 23.382812 9.15625 22.804688 C 9.726562 22.226562 10.351562 21.710938 11.027344 21.257812 C 11.699219 20.800781 12.410156 20.417969 13.160156 20.105469 C 13.910156 19.792969 14.679688 19.554688 15.476562 19.394531 C 16.269531 19.234375 17.074219 19.15625 17.882812 19.152344 C 18.242188 19.15625 18.597656 19.136719 18.953125 19.09375 C 19.308594 19.050781 19.664062 18.988281 20.011719 18.902344 C 20.359375 18.820312 20.699219 18.714844 21.035156 18.589844 C 21.371094 18.464844 21.699219 18.320312 22.019531 18.15625 C 22.339844 17.992188 22.644531 17.808594 22.941406 17.605469 C 23.238281 17.402344 23.523438 17.183594 23.796875 16.949219 C 24.066406 16.714844 24.324219 16.460938 24.566406 16.195312 C 24.804688 15.929688 25.03125 15.648438 25.238281 15.355469 C 25.449219 15.0625 25.636719 14.757812 25.808594 14.441406 C 25.984375 14.125 26.136719 13.796875 26.269531 13.464844 C 26.402344 13.128906 26.515625 12.785156 26.609375 12.4375 C 26.703125 12.089844 26.777344 11.738281 26.828125 11.378906 C 26.878906 11.023438 26.910156 10.664062 26.917969 10.300781 C 26.925781 9.941406 26.914062 9.582031 26.878906 9.222656 C 26.847656 8.863281 26.792969 8.503906 26.714844 8.152344 C 26.640625 7.800781 26.542969 7.453125 26.425781 7.113281 C 26.308594 6.769531 26.175781 6.4375 26.019531 6.113281 C 25.859375 5.789062 25.6875 5.472656 25.492188 5.167969 C 25.300781 4.867188 25.089844 4.574219 24.859375 4.296875 C 24.632812 4.019531 24.390625 3.753906 24.128906 3.503906 C 23.871094 3.253906 23.597656 3.023438 23.3125 2.804688 C 23.023438 2.589844 22.726562 2.390625 22.414062 2.210938 C 22.105469 2.03125 21.785156 1.871094 21.457031 1.726562 C 21.128906 1.585938 20.789062 1.464844 20.445312 1.363281 C 20.101562 1.261719 19.753906 1.179688 19.402344 1.121094 C 19.046875 1.058594 18.691406 1.023438 18.335938 1.003906 C 17.976562 0.988281 17.621094 0.992188 17.261719 1.019531 C 16.90625 1.042969 16.550781 1.089844 16.199219 1.160156 C 15.847656 1.230469 15.5 1.316406 15.160156 1.429688 C 14.816406 1.539062 14.484375 1.667969 14.160156 1.820312 C 13.832031 1.96875 13.519531 2.140625 13.210938 2.328125 C 12.90625 2.515625 12.613281 2.722656 12.332031 2.945312 C 12.050781 3.167969 11.785156 3.410156 11.53125 3.664062 C 11.277344 3.917969 11.039062 4.191406 10.820312 4.472656 C 10.597656 4.757812 10.394531 5.054688 10.210938 5.363281 C 10.023438 5.671875 9.855469 5.992188 9.707031 6.320312 C 9.558594 6.648438 9.433594 6.984375 9.324219 7.328125 C 9.214844 7.671875 9.128906 8.023438 9.0625 8.375 C 8.992188 8.730469 8.949219 9.089844 8.921875 9.449219 C 8.898438 9.808594 8.894531 10.167969 8.914062 10.53125 C 8.929688 10.890625 8.96875 11.25 9.03125 11.605469 C 9.089844 11.960938 9.171875 12.3125 9.273438 12.65625 C 9.375 13.003906 9.496094 13.34375 9.640625 13.671875 C 9.78125 14.003906 9.941406 14.328125 10.121094 14.640625 C 10.304688 14.949219 10.5 15.25 10.714844 15.539062 C 10.933594 15.828125 11.164062 16.101562 11.410156 16.363281 C 11.660156 16.621094 11.921875 16.867188 12.199219 17.097656 C 12.476562 17.324219 12.765625 17.535156 13.066406 17.730469 C 12.359375 17.980469 11.671875 18.285156 11.011719 18.640625 C 10.347656 19 9.714844 19.40625 9.117188 19.859375 C 8.515625 20.316406 7.953125 20.816406 7.429688 21.355469 C 6.902344 21.898438 6.425781 22.480469 5.988281 23.097656 C 5.554688 23.714844 5.167969 24.363281 4.832031 25.039062 C 4.496094 25.714844 4.214844 26.417969 3.984375 27.136719 C 3.753906 27.859375 3.582031 28.59375 3.464844 29.339844 C 3.347656 30.089844 3.289062 30.84375 3.289062 31.601562 C 3.289062 32.050781 3.375 32.484375 3.546875 32.898438 C 3.714844 33.316406 3.960938 33.683594 4.273438 34 C 4.589844 34.316406 4.957031 34.5625 5.367188 34.734375 C 5.78125 34.90625 6.210938 34.992188 6.65625 34.992188 L 17.882812 34.992188 C 18.03125 34.992188 18.175781 34.964844 18.3125 34.90625 C 18.449219 34.851562 18.570312 34.769531 18.675781 34.664062 C 18.78125 34.558594 18.863281 34.433594 18.921875 34.296875 C 18.976562 34.15625 19.007812 34.011719 19.007812 33.863281 C 19.007812 33.710938 18.976562 33.566406 18.921875 33.429688 C 18.863281 33.292969 18.78125 33.167969 18.675781 33.0625 C 18.570312 32.957031 18.449219 32.875 18.3125 32.816406 C 18.175781 32.761719 18.03125 32.730469 17.882812 32.730469 Z M 11.148438 10.101562 C 11.148438 9.65625 11.191406 9.214844 11.277344 8.777344 C 11.363281 8.339844 11.492188 7.917969 11.660156 7.503906 C 11.828125 7.09375 12.035156 6.703125 12.28125 6.332031 C 12.527344 5.960938 12.808594 5.617188 13.121094 5.300781 C 13.433594 4.988281 13.773438 4.707031 14.140625 4.457031 C 14.507812 4.210938 14.898438 4 15.304688 3.832031 C 15.714844 3.660156 16.136719 3.53125 16.570312 3.445312 C 17.003906 3.359375 17.441406 3.3125 17.882812 3.3125 C 18.324219 3.3125 18.761719 3.359375 19.199219 3.445312 C 19.632812 3.53125 20.050781 3.660156 20.460938 3.832031 C 20.871094 4 21.257812 4.210938 21.625 4.457031 C 21.992188 4.707031 22.332031 4.988281 22.644531 5.300781 C 22.960938 5.617188 23.238281 5.960938 23.484375 6.332031 C 23.730469 6.703125 23.9375 7.09375 24.105469 7.503906 C 24.277344 7.917969 24.402344 8.339844 24.488281 8.777344 C 24.574219 9.214844 24.621094 9.65625 24.621094 10.101562 C 24.621094 10.546875 24.574219 10.988281 24.488281 11.425781 C 24.402344 11.863281 24.277344 12.289062 24.105469 12.699219 C 23.9375 13.113281 23.730469 13.503906 23.484375 13.875 C 23.238281 14.246094 22.960938 14.585938 22.644531 14.902344 C 22.332031 15.21875 21.992188 15.5 21.625 15.746094 C 21.257812 15.996094 20.871094 16.203125 20.460938 16.375 C 20.050781 16.546875 19.632812 16.671875 19.199219 16.761719 C 18.761719 16.847656 18.324219 16.890625 17.882812 16.890625 C 17.441406 16.890625 17.003906 16.847656 16.570312 16.757812 C 16.136719 16.671875 15.714844 16.542969 15.304688 16.371094 C 14.898438 16.203125 14.511719 15.992188 14.140625 15.746094 C 13.773438 15.496094 13.433594 15.214844 13.121094 14.902344 C 12.808594 14.585938 12.53125 14.242188 12.285156 13.871094 C 12.039062 13.503906 11.832031 13.109375 11.660156 12.699219 C 11.492188 12.289062 11.363281 11.863281 11.277344 11.425781 C 11.191406 10.988281 11.148438 10.546875 11.148438 10.101562 Z M 11.148438 10.101562 " fill-opacity="1" fill-rule="nonzero"/></g></svg>