<svg xmlns="http://www.w3.org/2000/svg" xmlns:xlink="http://www.w3.org/1999/xlink" width="48" zoomAndPan="magnify" viewBox="0 0 36 36.000001" height="48" preserveAspectRatio="xMidYMid meet" version="1.0"><path fill="#000000" d="M 22.148438 17.875 L 33.507812 6.515625 C 34.554688 5.472656 34.554688 3.773438 33.507812 2.730469 C 32.464844 1.6875 30.769531 1.683594 29.722656 2.730469 L 18.363281 14.089844 L 7.003906 2.730469 C 5.960938 1.6875 4.261719 1.683594 3.214844 2.730469 C 2.171875 3.773438 2.171875 5.472656 3.21875 6.515625 L 14.574219 17.875 L 3.21875 29.234375 C 2.171875 30.28125 2.171875 31.976562 3.214844 33.023438 C 4.257812 34.066406 5.957031 34.066406 7.003906 33.019531 L 18.363281 21.664062 L 29.722656 33.019531 C 30.765625 34.066406 32.464844 34.070312 33.507812 33.023438 C 34.554688 31.980469 34.554688 30.28125 33.507812 29.234375 Z M 22.148438 17.875 " fill-opacity="1" fill-rule="evenodd"/></svg>