<svg xmlns="http://www.w3.org/2000/svg" xmlns:xlink="http://www.w3.org/1999/xlink" width="90" zoomAndPan="magnify" viewBox="0 0 67.5 30.000001" height="40" preserveAspectRatio="xMidYMid meet" version="1.0"><defs><g/></defs><g fill="#000000" fill-opacity="1"><g transform="translate(0.846773, 24.024196)"><g><path d="M 22.8125 -18.890625 L 22.8125 0 L 19.359375 0 L 19.359375 -11.609375 C 19.359375 -11.847656 19.363281 -12.101562 19.375 -12.375 C 19.394531 -12.65625 19.421875 -12.941406 19.453125 -13.234375 L 14.046875 -2.984375 C 13.753906 -2.421875 13.300781 -2.140625 12.6875 -2.140625 L 12.140625 -2.140625 C 11.835938 -2.140625 11.566406 -2.207031 11.328125 -2.34375 C 11.097656 -2.488281 10.910156 -2.703125 10.765625 -2.984375 L 5.34375 -13.265625 C 5.363281 -12.960938 5.382812 -12.671875 5.40625 -12.390625 C 5.425781 -12.109375 5.4375 -11.847656 5.4375 -11.609375 L 5.4375 0 L 1.984375 0 L 1.984375 -18.890625 L 4.953125 -18.890625 C 5.117188 -18.890625 5.265625 -18.882812 5.390625 -18.875 C 5.523438 -18.875 5.640625 -18.851562 5.734375 -18.8125 C 5.835938 -18.769531 5.929688 -18.707031 6.015625 -18.625 C 6.097656 -18.539062 6.175781 -18.425781 6.25 -18.28125 L 11.53125 -8.203125 C 11.695312 -7.898438 11.851562 -7.585938 12 -7.265625 C 12.144531 -6.941406 12.28125 -6.613281 12.40625 -6.28125 C 12.539062 -6.625 12.675781 -6.957031 12.8125 -7.28125 C 12.957031 -7.613281 13.113281 -7.9375 13.28125 -8.25 L 18.53125 -18.28125 C 18.613281 -18.425781 18.695312 -18.539062 18.78125 -18.625 C 18.863281 -18.707031 18.953125 -18.769531 19.046875 -18.8125 C 19.148438 -18.851562 19.265625 -18.875 19.390625 -18.875 C 19.523438 -18.882812 19.675781 -18.890625 19.84375 -18.890625 Z M 22.8125 -18.890625 "/></g></g></g><g fill="#38b6ff" fill-opacity="1"><g transform="translate(25.626259, 24.024196)"><g><path d="M 7.546875 -13.640625 C 8.546875 -13.640625 9.457031 -13.476562 10.28125 -13.15625 C 11.113281 -12.832031 11.820312 -12.375 12.40625 -11.78125 C 13 -11.1875 13.457031 -10.460938 13.78125 -9.609375 C 14.101562 -8.753906 14.265625 -7.796875 14.265625 -6.734375 C 14.265625 -5.660156 14.101562 -4.695312 13.78125 -3.84375 C 13.457031 -2.988281 13 -2.257812 12.40625 -1.65625 C 11.820312 -1.0625 11.113281 -0.601562 10.28125 -0.28125 C 9.457031 0.0390625 8.546875 0.203125 7.546875 0.203125 C 6.523438 0.203125 5.597656 0.0390625 4.765625 -0.28125 C 3.941406 -0.601562 3.234375 -1.0625 2.640625 -1.65625 C 2.054688 -2.257812 1.597656 -2.988281 1.265625 -3.84375 C 0.941406 -4.695312 0.78125 -5.660156 0.78125 -6.734375 C 0.78125 -7.796875 0.941406 -8.753906 1.265625 -9.609375 C 1.597656 -10.460938 2.054688 -11.1875 2.640625 -11.78125 C 3.234375 -12.375 3.941406 -12.832031 4.765625 -13.15625 C 5.597656 -13.476562 6.523438 -13.640625 7.546875 -13.640625 Z M 7.546875 -2.5 C 8.566406 -2.5 9.320312 -2.851562 9.8125 -3.5625 C 10.3125 -4.269531 10.5625 -5.320312 10.5625 -6.71875 C 10.5625 -8.101562 10.3125 -9.148438 9.8125 -9.859375 C 9.320312 -10.566406 8.566406 -10.921875 7.546875 -10.921875 C 6.492188 -10.921875 5.71875 -10.566406 5.21875 -9.859375 C 4.726562 -9.148438 4.484375 -8.101562 4.484375 -6.71875 C 4.484375 -5.320312 4.726562 -4.269531 5.21875 -3.5625 C 5.71875 -2.851562 6.492188 -2.5 7.546875 -2.5 Z M 7.546875 -2.5 "/></g></g></g><g fill="#000000" fill-opacity="1"><g transform="translate(40.664061, 24.024196)"><g><path d="M 11.953125 -7.171875 L 9.90625 -12.953125 C 9.789062 -13.265625 9.664062 -13.625 9.53125 -14.03125 C 9.394531 -14.4375 9.265625 -14.878906 9.140625 -15.359375 C 9.015625 -14.867188 8.882812 -14.414062 8.75 -14 C 8.625 -13.59375 8.5 -13.238281 8.375 -12.9375 L 6.34375 -7.171875 Z M 18.515625 0 L 15.484375 0 C 15.148438 0 14.875 -0.078125 14.65625 -0.234375 C 14.445312 -0.398438 14.289062 -0.609375 14.1875 -0.859375 L 12.90625 -4.46875 L 5.375 -4.46875 L 4.109375 -0.859375 C 4.015625 -0.640625 3.859375 -0.441406 3.640625 -0.265625 C 3.429688 -0.0859375 3.160156 0 2.828125 0 L -0.234375 0 L 7.15625 -18.890625 L 11.140625 -18.890625 Z M 18.515625 0 "/></g></g></g><g fill="#000000" fill-opacity="1"><g transform="translate(58.942874, 24.024196)"><g><path d="M 5.90625 0 L 1.984375 0 L 1.984375 -18.890625 L 5.90625 -18.890625 Z M 5.90625 0 "/></g></g></g></svg>