<svg xmlns="http://www.w3.org/2000/svg" xmlns:xlink="http://www.w3.org/1999/xlink" width="500" zoomAndPan="magnify" viewBox="0 0 375 374.999991" height="500" preserveAspectRatio="xMidYMid meet" version="1.0"><defs><g/><clipPath id="e1e6248f58"><path d="M 5 108 L 372 108 L 372 321 L 5 321 Z M 5 108 " clip-rule="nonzero"/></clipPath><clipPath id="cd438266e9"><path d="M 64.789062 11.640625 L 396.78125 139.695312 L 310.3125 363.863281 L -21.675781 235.804688 Z M 64.789062 11.640625 " clip-rule="nonzero"/></clipPath><clipPath id="2d0e15b2d6"><path d="M 64.789062 11.640625 L 396.78125 139.695312 L 310.3125 363.863281 L -21.675781 235.804688 Z M 64.789062 11.640625 " clip-rule="nonzero"/></clipPath><clipPath id="fe25505f11"><path d="M 368.882812 190.628906 C 377.132812 162.589844 363.035156 132.261719 336.414062 120.335938 C 315.859375 111.050781 293.113281 114.492188 276.539062 126.957031 C 268.277344 133.121094 256.851562 132.636719 248.824219 126.070312 C 242.648438 120.972656 235.40625 116.671875 227.527344 113.632812 C 204.417969 104.71875 179.648438 107.53125 159.722656 119.304688 C 148.179688 126.164062 133.851562 125.765625 122.269531 119.035156 C 117.238281 116.039062 111.695312 113.601562 105.894531 111.816406 C 68.300781 100.179688 27.550781 119.003906 11.847656 155.03125 C -6.046875 195.945312 13.953125 243.03125 55.183594 258.933594 C 72.253906 265.519531 90.15625 265.636719 106.246094 260.679688 C 122.519531 255.644531 139.914062 262.957031 147.628906 278.152344 C 156.652344 295.8125 172.382812 310.175781 193.007812 316.921875 C 230.925781 329.285156 272.746094 310.421875 288.523438 273.820312 C 290.324219 269.539062 291.765625 265.417969 292.859375 261.011719 C 296.441406 246.253906 308.011719 235.027344 322.976562 232.203125 C 343.917969 228.363281 362.3125 213.136719 368.882812 190.628906 Z M 368.882812 190.628906 " clip-rule="nonzero"/></clipPath><linearGradient x1="-21.779526" gradientTransform="matrix(1.313047, 0.506473, -0.506473, 1.313047, 66.717387, 12.38452)" y1="86.113998" x2="285.413445" gradientUnits="userSpaceOnUse" y2="86.113998" id="e70edcd73c"><stop stop-opacity="1" stop-color="rgb(50.999451%, 73.298645%, 98.799133%)" offset="0"/><stop stop-opacity="1" stop-color="rgb(50.999451%, 73.298645%, 98.799133%)" offset="0.0625"/><stop stop-opacity="1" stop-color="rgb(50.901794%, 73.127747%, 98.756409%)" offset="0.078125"/><stop stop-opacity="1" stop-color="rgb(50.698853%, 72.770691%, 98.667908%)" offset="0.0859375"/><stop stop-opacity="1" stop-color="rgb(50.488281%, 72.399902%, 98.576355%)" offset="0.09375"/><stop stop-opacity="1" stop-color="rgb(50.27771%, 72.029114%, 98.484802%)" offset="0.101562"/><stop stop-opacity="1" stop-color="rgb(50.067139%, 71.658325%, 98.39325%)" offset="0.109375"/><stop stop-opacity="1" stop-color="rgb(49.856567%, 71.287537%, 98.301697%)" offset="0.117187"/><stop stop-opacity="1" stop-color="rgb(49.645996%, 70.918274%, 98.210144%)" offset="0.125"/><stop stop-opacity="1" stop-color="rgb(49.435425%, 70.547485%, 98.118591%)" offset="0.132812"/><stop stop-opacity="1" stop-color="rgb(49.224854%, 70.176697%, 98.027039%)" offset="0.140625"/><stop stop-opacity="1" stop-color="rgb(49.014282%, 69.805908%, 97.935486%)" offset="0.148437"/><stop stop-opacity="1" stop-color="rgb(48.803711%, 69.43512%, 97.843933%)" offset="0.15625"/><stop stop-opacity="1" stop-color="rgb(48.59314%, 69.064331%, 97.75238%)" offset="0.164062"/><stop stop-opacity="1" stop-color="rgb(48.382568%, 68.693542%, 97.660828%)" offset="0.171875"/><stop stop-opacity="1" stop-color="rgb(48.171997%, 68.32428%, 97.569275%)" offset="0.179687"/><stop stop-opacity="1" stop-color="rgb(47.961426%, 67.953491%, 97.476196%)" offset="0.1875"/><stop stop-opacity="1" stop-color="rgb(47.749329%, 67.582703%, 97.384644%)" offset="0.195312"/><stop stop-opacity="1" stop-color="rgb(47.538757%, 67.211914%, 97.293091%)" offset="0.203125"/><stop stop-opacity="1" stop-color="rgb(47.328186%, 66.841125%, 97.201538%)" offset="0.210937"/><stop stop-opacity="1" stop-color="rgb(47.117615%, 66.470337%, 97.109985%)" offset="0.21875"/><stop stop-opacity="1" stop-color="rgb(46.907043%, 66.099548%, 97.018433%)" offset="0.226562"/><stop stop-opacity="1" stop-color="rgb(46.696472%, 65.730286%, 96.92688%)" offset="0.234375"/><stop stop-opacity="1" stop-color="rgb(46.485901%, 65.359497%, 96.835327%)" offset="0.242187"/><stop stop-opacity="1" stop-color="rgb(46.27533%, 64.988708%, 96.743774%)" offset="0.25"/><stop stop-opacity="1" stop-color="rgb(46.064758%, 64.61792%, 96.652222%)" offset="0.257812"/><stop stop-opacity="1" stop-color="rgb(45.854187%, 64.247131%, 96.560669%)" offset="0.265625"/><stop stop-opacity="1" stop-color="rgb(45.643616%, 63.876343%, 96.469116%)" offset="0.273438"/><stop stop-opacity="1" stop-color="rgb(45.433044%, 63.505554%, 96.377563%)" offset="0.28125"/><stop stop-opacity="1" stop-color="rgb(45.222473%, 63.136292%, 96.284485%)" offset="0.289062"/><stop stop-opacity="1" stop-color="rgb(45.011902%, 62.765503%, 96.192932%)" offset="0.296875"/><stop stop-opacity="1" stop-color="rgb(44.801331%, 62.394714%, 96.101379%)" offset="0.304687"/><stop stop-opacity="1" stop-color="rgb(44.590759%, 62.023926%, 96.009827%)" offset="0.3125"/><stop stop-opacity="1" stop-color="rgb(44.380188%, 61.653137%, 95.918274%)" offset="0.320312"/><stop stop-opacity="1" stop-color="rgb(44.169617%, 61.282349%, 95.826721%)" offset="0.328125"/><stop stop-opacity="1" stop-color="rgb(43.959045%, 60.91156%, 95.735168%)" offset="0.335938"/><stop stop-opacity="1" stop-color="rgb(43.748474%, 60.542297%, 95.643616%)" offset="0.34375"/><stop stop-opacity="1" stop-color="rgb(43.537903%, 60.171509%, 95.552063%)" offset="0.351562"/><stop stop-opacity="1" stop-color="rgb(43.325806%, 59.80072%, 95.46051%)" offset="0.359375"/><stop stop-opacity="1" stop-color="rgb(43.115234%, 59.429932%, 95.368958%)" offset="0.367187"/><stop stop-opacity="1" stop-color="rgb(42.904663%, 59.059143%, 95.277405%)" offset="0.375"/><stop stop-opacity="1" stop-color="rgb(42.694092%, 58.688354%, 95.185852%)" offset="0.382812"/><stop stop-opacity="1" stop-color="rgb(42.483521%, 58.317566%, 95.092773%)" offset="0.390625"/><stop stop-opacity="1" stop-color="rgb(42.272949%, 57.948303%, 95.001221%)" offset="0.398437"/><stop stop-opacity="1" stop-color="rgb(42.062378%, 57.577515%, 94.909668%)" offset="0.40625"/><stop stop-opacity="1" stop-color="rgb(41.851807%, 57.206726%, 94.818115%)" offset="0.414062"/><stop stop-opacity="1" stop-color="rgb(41.641235%, 56.835938%, 94.726562%)" offset="0.421875"/><stop stop-opacity="1" stop-color="rgb(41.430664%, 56.465149%, 94.63501%)" offset="0.429687"/><stop stop-opacity="1" stop-color="rgb(41.220093%, 56.09436%, 94.543457%)" offset="0.4375"/><stop stop-opacity="1" stop-color="rgb(41.009521%, 55.723572%, 94.451904%)" offset="0.445313"/><stop stop-opacity="1" stop-color="rgb(40.79895%, 55.352783%, 94.360352%)" offset="0.453125"/><stop stop-opacity="1" stop-color="rgb(40.588379%, 54.983521%, 94.268799%)" offset="0.460938"/><stop stop-opacity="1" stop-color="rgb(40.377808%, 54.612732%, 94.177246%)" offset="0.46875"/><stop stop-opacity="1" stop-color="rgb(40.167236%, 54.241943%, 94.085693%)" offset="0.476562"/><stop stop-opacity="1" stop-color="rgb(39.956665%, 53.871155%, 93.994141%)" offset="0.484375"/><stop stop-opacity="1" stop-color="rgb(39.746094%, 53.500366%, 93.901062%)" offset="0.492188"/><stop stop-opacity="1" stop-color="rgb(39.535522%, 53.129578%, 93.809509%)" offset="0.5"/><stop stop-opacity="1" stop-color="rgb(39.324951%, 52.758789%, 93.717957%)" offset="0.507812"/><stop stop-opacity="1" stop-color="rgb(39.11438%, 52.389526%, 93.626404%)" offset="0.515625"/><stop stop-opacity="1" stop-color="rgb(38.903809%, 52.018738%, 93.534851%)" offset="0.523438"/><stop stop-opacity="1" stop-color="rgb(38.691711%, 51.647949%, 93.443298%)" offset="0.53125"/><stop stop-opacity="1" stop-color="rgb(38.48114%, 51.277161%, 93.351746%)" offset="0.539062"/><stop stop-opacity="1" stop-color="rgb(38.270569%, 50.906372%, 93.260193%)" offset="0.546875"/><stop stop-opacity="1" stop-color="rgb(38.059998%, 50.535583%, 93.16864%)" offset="0.554688"/><stop stop-opacity="1" stop-color="rgb(37.849426%, 50.164795%, 93.077087%)" offset="0.5625"/><stop stop-opacity="1" stop-color="rgb(37.638855%, 49.795532%, 92.985535%)" offset="0.570312"/><stop stop-opacity="1" stop-color="rgb(37.428284%, 49.424744%, 92.893982%)" offset="0.578125"/><stop stop-opacity="1" stop-color="rgb(37.217712%, 49.053955%, 92.802429%)" offset="0.585937"/><stop stop-opacity="1" stop-color="rgb(37.007141%, 48.683167%, 92.709351%)" offset="0.59375"/><stop stop-opacity="1" stop-color="rgb(36.79657%, 48.312378%, 92.617798%)" offset="0.601562"/><stop stop-opacity="1" stop-color="rgb(36.585999%, 47.941589%, 92.526245%)" offset="0.609375"/><stop stop-opacity="1" stop-color="rgb(36.375427%, 47.570801%, 92.434692%)" offset="0.617187"/><stop stop-opacity="1" stop-color="rgb(36.164856%, 47.201538%, 92.34314%)" offset="0.625"/><stop stop-opacity="1" stop-color="rgb(35.954285%, 46.83075%, 92.251587%)" offset="0.632813"/><stop stop-opacity="1" stop-color="rgb(35.743713%, 46.459961%, 92.160034%)" offset="0.640625"/><stop stop-opacity="1" stop-color="rgb(35.533142%, 46.089172%, 92.068481%)" offset="0.648438"/><stop stop-opacity="1" stop-color="rgb(35.322571%, 45.718384%, 91.976929%)" offset="0.65625"/><stop stop-opacity="1" stop-color="rgb(35.112%, 45.347595%, 91.885376%)" offset="0.664063"/><stop stop-opacity="1" stop-color="rgb(34.901428%, 44.976807%, 91.793823%)" offset="0.671875"/><stop stop-opacity="1" stop-color="rgb(34.690857%, 44.607544%, 91.702271%)" offset="0.679688"/><stop stop-opacity="1" stop-color="rgb(34.480286%, 44.236755%, 91.610718%)" offset="0.6875"/><stop stop-opacity="1" stop-color="rgb(34.269714%, 43.865967%, 91.519165%)" offset="0.695312"/><stop stop-opacity="1" stop-color="rgb(34.057617%, 43.495178%, 91.426086%)" offset="0.703125"/><stop stop-opacity="1" stop-color="rgb(33.847046%, 43.12439%, 91.334534%)" offset="0.710938"/><stop stop-opacity="1" stop-color="rgb(33.636475%, 42.753601%, 91.242981%)" offset="0.71875"/><stop stop-opacity="1" stop-color="rgb(33.425903%, 42.382812%, 91.151428%)" offset="0.726562"/><stop stop-opacity="1" stop-color="rgb(33.215332%, 42.01355%, 91.059875%)" offset="0.734375"/><stop stop-opacity="1" stop-color="rgb(33.004761%, 41.642761%, 90.968323%)" offset="0.742188"/><stop stop-opacity="1" stop-color="rgb(32.794189%, 41.271973%, 90.87677%)" offset="0.75"/><stop stop-opacity="1" stop-color="rgb(32.583618%, 40.901184%, 90.785217%)" offset="0.757812"/><stop stop-opacity="1" stop-color="rgb(32.373047%, 40.530396%, 90.693665%)" offset="0.765625"/><stop stop-opacity="1" stop-color="rgb(32.162476%, 40.159607%, 90.602112%)" offset="0.773438"/><stop stop-opacity="1" stop-color="rgb(31.951904%, 39.788818%, 90.510559%)" offset="0.78125"/><stop stop-opacity="1" stop-color="rgb(31.741333%, 39.419556%, 90.419006%)" offset="0.789062"/><stop stop-opacity="1" stop-color="rgb(31.530762%, 39.048767%, 90.327454%)" offset="0.796875"/><stop stop-opacity="1" stop-color="rgb(31.32019%, 38.677979%, 90.234375%)" offset="0.804688"/><stop stop-opacity="1" stop-color="rgb(31.109619%, 38.30719%, 90.142822%)" offset="0.8125"/><stop stop-opacity="1" stop-color="rgb(30.899048%, 37.936401%, 90.05127%)" offset="0.820312"/><stop stop-opacity="1" stop-color="rgb(30.688477%, 37.565613%, 89.959717%)" offset="0.828125"/><stop stop-opacity="1" stop-color="rgb(30.477905%, 37.194824%, 89.868164%)" offset="0.835937"/><stop stop-opacity="1" stop-color="rgb(30.267334%, 36.825562%, 89.776611%)" offset="0.84375"/><stop stop-opacity="1" stop-color="rgb(30.056763%, 36.454773%, 89.685059%)" offset="0.851562"/><stop stop-opacity="1" stop-color="rgb(29.846191%, 36.083984%, 89.593506%)" offset="0.859375"/><stop stop-opacity="1" stop-color="rgb(29.634094%, 35.713196%, 89.501953%)" offset="0.867187"/><stop stop-opacity="1" stop-color="rgb(29.463196%, 35.414124%, 89.427185%)" offset="0.875"/><stop stop-opacity="1" stop-color="rgb(29.399109%, 35.299683%, 89.399719%)" offset="1"/></linearGradient><clipPath id="dba0856d9d"><path d="M 115 80 L 150 80 L 150 114 L 115 114 Z M 115 80 " clip-rule="nonzero"/></clipPath><clipPath id="d3347c388a"><path d="M 64.789062 11.640625 L 396.78125 139.695312 L 310.3125 363.863281 L -21.675781 235.804688 Z M 64.789062 11.640625 " clip-rule="nonzero"/></clipPath><clipPath id="953ac7de2a"><path d="M 64.789062 11.640625 L 396.78125 139.695312 L 310.3125 363.863281 L -21.675781 235.804688 Z M 64.789062 11.640625 " clip-rule="nonzero"/></clipPath><clipPath id="32e5b7c6a0"><path d="M 148.179688 103.085938 C 147.984375 103.597656 147.761719 104.097656 147.515625 104.589844 C 147.269531 105.078125 146.996094 105.554688 146.703125 106.019531 C 146.410156 106.484375 146.09375 106.929688 145.757812 107.363281 C 145.421875 107.796875 145.0625 108.210938 144.683594 108.609375 C 144.304688 109.003906 143.910156 109.382812 143.492188 109.742188 C 143.078125 110.097656 142.648438 110.4375 142.199219 110.753906 C 141.75 111.066406 141.289062 111.359375 140.808594 111.632812 C 140.332031 111.902344 139.84375 112.148438 139.34375 112.371094 C 138.839844 112.59375 138.328125 112.789062 137.808594 112.960938 C 137.289062 113.132812 136.761719 113.28125 136.226562 113.398438 C 135.691406 113.519531 135.148438 113.613281 134.605469 113.679688 C 134.0625 113.75 133.515625 113.789062 132.964844 113.800781 C 132.417969 113.816406 131.871094 113.800781 131.324219 113.761719 C 130.777344 113.722656 130.234375 113.65625 129.691406 113.5625 C 129.152344 113.46875 128.617188 113.347656 128.089844 113.199219 C 127.558594 113.054688 127.039062 112.882812 126.527344 112.683594 C 126.015625 112.488281 125.515625 112.265625 125.027344 112.019531 C 124.535156 111.773438 124.058594 111.503906 123.59375 111.210938 C 123.132812 110.914062 122.683594 110.601562 122.25 110.261719 C 121.820312 109.925781 121.40625 109.566406 121.007812 109.1875 C 120.609375 108.8125 120.230469 108.414062 119.875 108 C 119.515625 107.582031 119.179688 107.152344 118.863281 106.703125 C 118.546875 106.253906 118.253906 105.792969 117.984375 105.316406 C 117.714844 104.835938 117.46875 104.347656 117.246094 103.847656 C 117.023438 103.34375 116.824219 102.835938 116.652344 102.3125 C 116.480469 101.792969 116.335938 101.265625 116.214844 100.730469 C 116.09375 100.195312 116 99.65625 115.933594 99.109375 C 115.867188 98.566406 115.824219 98.019531 115.8125 97.472656 C 115.800781 96.921875 115.8125 96.375 115.851562 95.828125 C 115.894531 95.28125 115.960938 94.738281 116.054688 94.195312 C 116.148438 93.65625 116.269531 93.121094 116.414062 92.59375 C 116.558594 92.066406 116.730469 91.542969 116.929688 91.03125 C 117.128906 90.519531 117.347656 90.019531 117.597656 89.53125 C 117.84375 89.039062 118.113281 88.5625 118.40625 88.101562 C 118.699219 87.636719 119.015625 87.1875 119.351562 86.757812 C 119.691406 86.324219 120.046875 85.910156 120.425781 85.511719 C 120.804688 85.113281 121.199219 84.738281 121.617188 84.378906 C 122.03125 84.019531 122.464844 83.683594 122.910156 83.367188 C 123.359375 83.050781 123.824219 82.757812 124.300781 82.488281 C 124.777344 82.21875 125.265625 81.972656 125.769531 81.75 C 126.269531 81.527344 126.78125 81.328125 127.300781 81.15625 C 127.820312 80.984375 128.351562 80.839844 128.886719 80.71875 C 129.421875 80.597656 129.960938 80.503906 130.503906 80.4375 C 131.050781 80.371094 131.59375 80.332031 132.144531 80.316406 C 132.691406 80.304688 133.238281 80.316406 133.785156 80.359375 C 134.332031 80.398438 134.878906 80.464844 135.417969 80.558594 C 135.957031 80.652344 136.492188 80.773438 137.019531 80.917969 C 137.550781 81.066406 138.070312 81.238281 138.582031 81.433594 C 139.09375 81.632812 139.59375 81.855469 140.085938 82.101562 C 140.574219 82.347656 141.050781 82.617188 141.515625 82.910156 C 141.976562 83.203125 142.425781 83.519531 142.859375 83.855469 C 143.289062 84.195312 143.707031 84.550781 144.101562 84.929688 C 144.5 85.308594 144.878906 85.707031 145.234375 86.121094 C 145.59375 86.535156 145.929688 86.96875 146.246094 87.417969 C 146.5625 87.863281 146.855469 88.328125 147.125 88.804688 C 147.398438 89.28125 147.644531 89.773438 147.867188 90.273438 C 148.085938 90.773438 148.285156 91.285156 148.457031 91.804688 C 148.628906 92.328125 148.773438 92.855469 148.894531 93.390625 C 149.015625 93.925781 149.109375 94.464844 149.175781 95.007812 C 149.242188 95.554688 149.285156 96.101562 149.296875 96.648438 C 149.3125 97.195312 149.296875 97.746094 149.257812 98.292969 C 149.214844 98.839844 149.148438 99.382812 149.054688 99.921875 C 148.960938 100.464844 148.84375 100.996094 148.695312 101.527344 C 148.550781 102.054688 148.378906 102.574219 148.179688 103.085938 Z M 148.179688 103.085938 " clip-rule="nonzero"/></clipPath><linearGradient x1="49.907018" gradientTransform="matrix(1.313047, 0.506473, -0.506473, 1.313047, 66.717387, 12.38452)" y1="86.113998" x2="80.69298" gradientUnits="userSpaceOnUse" y2="86.113998" id="a9f19dc819"><stop stop-opacity="1" stop-color="rgb(46.618652%, 65.592957%, 96.893311%)" offset="0"/><stop stop-opacity="1" stop-color="rgb(46.533203%, 65.44342%, 96.856689%)" offset="0.0625"/><stop stop-opacity="1" stop-color="rgb(46.365356%, 65.1474%, 96.781921%)" offset="0.125"/><stop stop-opacity="1" stop-color="rgb(46.195984%, 64.849854%, 96.708679%)" offset="0.1875"/><stop stop-opacity="1" stop-color="rgb(46.026611%, 64.552307%, 96.635437%)" offset="0.25"/><stop stop-opacity="1" stop-color="rgb(45.858765%, 64.256287%, 96.562195%)" offset="0.3125"/><stop stop-opacity="1" stop-color="rgb(45.689392%, 63.95874%, 96.488953%)" offset="0.375"/><stop stop-opacity="1" stop-color="rgb(45.52002%, 63.661194%, 96.41571%)" offset="0.4375"/><stop stop-opacity="1" stop-color="rgb(45.352173%, 63.363647%, 96.340942%)" offset="0.5"/><stop stop-opacity="1" stop-color="rgb(45.1828%, 63.067627%, 96.2677%)" offset="0.5625"/><stop stop-opacity="1" stop-color="rgb(45.013428%, 62.770081%, 96.194458%)" offset="0.625"/><stop stop-opacity="1" stop-color="rgb(44.845581%, 62.472534%, 96.121216%)" offset="0.6875"/><stop stop-opacity="1" stop-color="rgb(44.676208%, 62.176514%, 96.047974%)" offset="0.75"/><stop stop-opacity="1" stop-color="rgb(44.506836%, 61.878967%, 95.974731%)" offset="0.8125"/><stop stop-opacity="1" stop-color="rgb(44.338989%, 61.581421%, 95.899963%)" offset="0.875"/><stop stop-opacity="1" stop-color="rgb(44.169617%, 61.283875%, 95.826721%)" offset="0.9375"/><stop stop-opacity="1" stop-color="rgb(44.000244%, 60.987854%, 95.753479%)" offset="1"/></linearGradient><clipPath id="0a61d9ef20"><path d="M 224 77 L 245 77 L 245 98 L 224 98 Z M 224 77 " clip-rule="nonzero"/></clipPath><clipPath id="7e6f073249"><path d="M 64.789062 11.640625 L 396.78125 139.695312 L 310.3125 363.863281 L -21.675781 235.804688 Z M 64.789062 11.640625 " clip-rule="nonzero"/></clipPath><clipPath id="5d3fa779a0"><path d="M 64.789062 11.640625 L 396.78125 139.695312 L 310.3125 363.863281 L -21.675781 235.804688 Z M 64.789062 11.640625 " clip-rule="nonzero"/></clipPath><clipPath id="230f73eb66"><path d="M 243.402344 91.246094 C 243.167969 91.859375 242.875 92.441406 242.523438 92.996094 C 242.171875 93.550781 241.769531 94.066406 241.316406 94.539062 C 240.863281 95.015625 240.371094 95.441406 239.832031 95.820312 C 239.296875 96.195312 238.730469 96.519531 238.128906 96.785156 C 237.53125 97.050781 236.910156 97.253906 236.269531 97.398438 C 235.628906 97.542969 234.980469 97.621094 234.324219 97.640625 C 233.667969 97.65625 233.019531 97.605469 232.371094 97.496094 C 231.726562 97.382812 231.097656 97.207031 230.484375 96.972656 C 229.871094 96.738281 229.289062 96.441406 228.734375 96.09375 C 228.179688 95.742188 227.664062 95.339844 227.191406 94.886719 C 226.714844 94.433594 226.289062 93.941406 225.910156 93.402344 C 225.53125 92.867188 225.210938 92.300781 224.945312 91.699219 C 224.679688 91.097656 224.476562 90.480469 224.332031 89.839844 C 224.1875 89.199219 224.105469 88.550781 224.089844 87.894531 C 224.074219 87.238281 224.121094 86.589844 224.234375 85.941406 C 224.347656 85.296875 224.519531 84.667969 224.757812 84.054688 C 224.992188 83.441406 225.289062 82.859375 225.636719 82.304688 C 225.988281 81.75 226.390625 81.234375 226.84375 80.761719 C 227.296875 80.285156 227.789062 79.859375 228.328125 79.480469 C 228.863281 79.101562 229.429688 78.78125 230.03125 78.515625 C 230.628906 78.25 231.25 78.042969 231.890625 77.902344 C 232.53125 77.757812 233.179688 77.675781 233.835938 77.660156 C 234.492188 77.644531 235.140625 77.691406 235.789062 77.804688 C 236.433594 77.917969 237.0625 78.089844 237.675781 78.328125 C 238.289062 78.5625 238.871094 78.855469 239.425781 79.207031 C 239.980469 79.558594 240.496094 79.960938 240.96875 80.414062 C 241.445312 80.867188 241.871094 81.359375 242.25 81.894531 C 242.628906 82.433594 242.949219 83 243.214844 83.601562 C 243.480469 84.199219 243.6875 84.820312 243.828125 85.460938 C 243.972656 86.101562 244.054688 86.75 244.070312 87.40625 C 244.085938 88.058594 244.039062 88.710938 243.925781 89.359375 C 243.8125 90.003906 243.640625 90.632812 243.402344 91.246094 Z M 243.402344 91.246094 " clip-rule="nonzero"/></clipPath><linearGradient x1="121.008519" gradientTransform="matrix(1.313047, 0.506473, -0.506473, 1.313047, 66.717387, 12.38452)" y1="86.113998" x2="139.391464" gradientUnits="userSpaceOnUse" y2="86.113998" id="37948b6a25"><stop stop-opacity="1" stop-color="rgb(40.377808%, 54.614258%, 94.177246%)" offset="0"/><stop stop-opacity="1" stop-color="rgb(40.2771%, 54.437256%, 94.132996%)" offset="0.125"/><stop stop-opacity="1" stop-color="rgb(40.075684%, 54.081726%, 94.044495%)" offset="0.25"/><stop stop-opacity="1" stop-color="rgb(39.874268%, 53.726196%, 93.95752%)" offset="0.375"/><stop stop-opacity="1" stop-color="rgb(39.672852%, 53.372192%, 93.869019%)" offset="0.5"/><stop stop-opacity="1" stop-color="rgb(39.46991%, 53.016663%, 93.782043%)" offset="0.625"/><stop stop-opacity="1" stop-color="rgb(39.268494%, 52.662659%, 93.693542%)" offset="0.75"/><stop stop-opacity="1" stop-color="rgb(39.067078%, 52.307129%, 93.606567%)" offset="0.875"/><stop stop-opacity="1" stop-color="rgb(38.865662%, 51.953125%, 93.518066%)" offset="1"/></linearGradient><clipPath id="8a1f87fbe0"><path d="M 313 253 L 346 253 L 346 286 L 313 286 Z M 313 253 " clip-rule="nonzero"/></clipPath><clipPath id="88a5e25126"><path d="M 64.789062 11.640625 L 396.78125 139.695312 L 310.3125 363.863281 L -21.675781 235.804688 Z M 64.789062 11.640625 " clip-rule="nonzero"/></clipPath><clipPath id="274e9bd02e"><path d="M 64.789062 11.640625 L 396.78125 139.695312 L 310.3125 363.863281 L -21.675781 235.804688 Z M 64.789062 11.640625 " clip-rule="nonzero"/></clipPath><clipPath id="200ca41e17"><path d="M 343.972656 275.148438 C 343.601562 276.113281 343.136719 277.03125 342.585938 277.90625 C 342.03125 278.78125 341.398438 279.59375 340.683594 280.34375 C 339.96875 281.09375 339.191406 281.765625 338.34375 282.359375 C 337.496094 282.957031 336.601562 283.464844 335.65625 283.882812 C 334.710938 284.304688 333.730469 284.625 332.722656 284.855469 C 331.710938 285.082031 330.6875 285.207031 329.65625 285.230469 C 328.621094 285.257812 327.59375 285.179688 326.574219 285.003906 C 325.554688 284.828125 324.5625 284.554688 323.59375 284.179688 C 322.628906 283.808594 321.710938 283.34375 320.835938 282.792969 C 319.960938 282.238281 319.148438 281.605469 318.398438 280.890625 C 317.648438 280.175781 316.976562 279.398438 316.378906 278.550781 C 315.785156 277.703125 315.277344 276.808594 314.859375 275.863281 C 314.4375 274.914062 314.113281 273.9375 313.886719 272.929688 C 313.660156 271.917969 313.535156 270.894531 313.511719 269.863281 C 313.484375 268.828125 313.558594 267.800781 313.738281 266.78125 C 313.914062 265.761719 314.1875 264.765625 314.5625 263.800781 C 314.933594 262.835938 315.398438 261.917969 315.949219 261.042969 C 316.503906 260.167969 317.136719 259.355469 317.851562 258.605469 C 318.566406 257.855469 319.34375 257.183594 320.191406 256.585938 C 321.039062 255.992188 321.933594 255.484375 322.878906 255.066406 C 323.824219 254.644531 324.804688 254.320312 325.8125 254.09375 C 326.824219 253.867188 327.847656 253.742188 328.878906 253.71875 C 329.914062 253.691406 330.941406 253.765625 331.960938 253.945312 C 332.980469 254.121094 333.972656 254.394531 334.941406 254.769531 C 335.90625 255.140625 336.824219 255.605469 337.699219 256.15625 C 338.574219 256.710938 339.386719 257.34375 340.136719 258.058594 C 340.886719 258.773438 341.558594 259.550781 342.152344 260.398438 C 342.75 261.246094 343.257812 262.140625 343.675781 263.085938 C 344.097656 264.03125 344.417969 265.011719 344.648438 266.019531 C 344.875 267.03125 345 268.050781 345.023438 269.085938 C 345.050781 270.121094 344.972656 271.148438 344.796875 272.167969 C 344.621094 273.1875 344.347656 274.179688 343.972656 275.148438 Z M 343.972656 275.148438 " clip-rule="nonzero"/></clipPath><linearGradient x1="225.300767" gradientTransform="matrix(1.313047, 0.506473, -0.506473, 1.313047, 66.717387, 12.38452)" y1="86.113998" x2="254.299179" gradientUnits="userSpaceOnUse" y2="86.113998" id="293739fb02"><stop stop-opacity="1" stop-color="rgb(31.22406%, 38.510132%, 90.193176%)" offset="0"/><stop stop-opacity="1" stop-color="rgb(31.144714%, 38.369751%, 90.158081%)" offset="0.0625"/><stop stop-opacity="1" stop-color="rgb(30.986023%, 38.090515%, 90.089417%)" offset="0.125"/><stop stop-opacity="1" stop-color="rgb(30.827332%, 37.811279%, 90.020752%)" offset="0.1875"/><stop stop-opacity="1" stop-color="rgb(30.667114%, 37.530518%, 89.950562%)" offset="0.25"/><stop stop-opacity="1" stop-color="rgb(30.508423%, 37.251282%, 89.881897%)" offset="0.3125"/><stop stop-opacity="1" stop-color="rgb(30.349731%, 36.97052%, 89.811707%)" offset="0.375"/><stop stop-opacity="1" stop-color="rgb(30.19104%, 36.691284%, 89.743042%)" offset="0.4375"/><stop stop-opacity="1" stop-color="rgb(30.030823%, 36.412048%, 89.674377%)" offset="0.5"/><stop stop-opacity="1" stop-color="rgb(29.872131%, 36.131287%, 89.604187%)" offset="0.5625"/><stop stop-opacity="1" stop-color="rgb(29.71344%, 35.852051%, 89.535522%)" offset="0.625"/><stop stop-opacity="1" stop-color="rgb(29.554749%, 35.571289%, 89.466858%)" offset="0.6875"/><stop stop-opacity="1" stop-color="rgb(29.437256%, 35.365295%, 89.414978%)" offset="0.75"/><stop stop-opacity="1" stop-color="rgb(29.399109%, 35.299683%, 89.399719%)" offset="1"/></linearGradient></defs><g clip-path="url(#e1e6248f58)"><g clip-path="url(#cd438266e9)"><g clip-path="url(#2d0e15b2d6)"><g clip-path="url(#fe25505f11)"><path fill="url(#e70edcd73c)" d="M 48.566406 -25.730469 L -76.925781 299.613281 L 326.433594 455.199219 L 451.925781 129.851562 Z M 48.566406 -25.730469 " fill-rule="nonzero"/></g></g></g></g><g clip-path="url(#dba0856d9d)"><g clip-path="url(#d3347c388a)"><g clip-path="url(#953ac7de2a)"><g clip-path="url(#32e5b7c6a0)"><path fill="url(#a9f19dc819)" d="M 120.140625 69.050781 L 104.546875 109.476562 L 144.96875 125.066406 L 160.5625 84.644531 Z M 120.140625 69.050781 " fill-rule="nonzero"/></g></g></g></g><g clip-path="url(#0a61d9ef20)"><g clip-path="url(#7e6f073249)"><g clip-path="url(#5d3fa779a0)"><g clip-path="url(#230f73eb66)"><path fill="url(#37948b6a25)" d="M 226.667969 70.925781 L 217.355469 95.0625 L 241.492188 104.375 L 250.804688 80.234375 Z M 226.667969 70.925781 " fill-rule="nonzero"/></g></g></g></g><g clip-path="url(#8a1f87fbe0)"><g clip-path="url(#88a5e25126)"><g clip-path="url(#274e9bd02e)"><g clip-path="url(#200ca41e17)"><path fill="url(#293739fb02)" d="M 317.574219 243.09375 L 302.886719 281.167969 L 340.960938 295.855469 L 355.648438 257.78125 Z M 317.574219 243.09375 " fill-rule="nonzero"/></g></g></g></g><g fill="#fcfdf2" fill-opacity="1"><g transform="translate(66.085697, 232.35977)"><g><path d="M 14.6875 -3.734375 C 11.144531 -2.828125 8.203125 -2.6875 5.859375 -3.3125 C 3.515625 -3.9375 1.707031 -5.085938 0.4375 -6.765625 C -0.832031 -8.441406 -1.628906 -10.378906 -1.953125 -12.578125 C -2.335938 -15.210938 -2.566406 -18.144531 -2.640625 -21.375 C -2.722656 -24.613281 -2.804688 -27.921875 -2.890625 -31.296875 C -2.984375 -34.679688 -3.265625 -37.90625 -3.734375 -40.96875 C -3.992188 -42.53125 -4.472656 -44.550781 -5.171875 -47.03125 C -5.867188 -49.507812 -6.628906 -52.226562 -7.453125 -55.1875 C -8.285156 -58.15625 -8.9375 -61.148438 -9.40625 -64.171875 C -9.875 -67.203125 -10.003906 -70.050781 -9.796875 -72.71875 C -9.585938 -75.394531 -8.820312 -77.695312 -7.5 -79.625 C -6.175781 -81.550781 -4.128906 -82.867188 -1.359375 -83.578125 C 0.515625 -84.046875 2.363281 -83.734375 4.1875 -82.640625 C 6.019531 -81.554688 7.757812 -80.097656 9.40625 -78.265625 C 11.0625 -76.441406 12.59375 -74.5625 14 -72.625 C 15.414062 -70.6875 16.640625 -69.070312 17.671875 -67.78125 C 18.703125 -66.488281 19.457031 -65.90625 19.9375 -66.03125 C 20.425781 -66.15625 20.710938 -67.003906 20.796875 -68.578125 C 20.878906 -70.148438 20.972656 -72.097656 21.078125 -74.421875 C 21.191406 -76.742188 21.484375 -79.085938 21.953125 -81.453125 C 22.429688 -83.828125 23.316406 -85.953125 24.609375 -87.828125 C 25.910156 -89.710938 27.8125 -90.972656 30.3125 -91.609375 C 33.15625 -92.328125 35.617188 -92.132812 37.703125 -91.03125 C 39.796875 -89.9375 41.566406 -88.28125 43.015625 -86.0625 C 44.472656 -83.851562 45.671875 -81.332031 46.609375 -78.5 C 47.546875 -75.675781 48.304688 -72.878906 48.890625 -70.109375 C 49.472656 -67.335938 49.945312 -64.867188 50.3125 -62.703125 C 50.6875 -60.535156 51.023438 -59.015625 51.328125 -58.140625 C 52.316406 -55.066406 53.46875 -52.550781 54.78125 -50.59375 C 56.101562 -48.632812 57.507812 -46.828125 59 -45.171875 C 60.488281 -43.515625 61.953125 -41.648438 63.390625 -39.578125 C 64.835938 -37.515625 66.15625 -34.859375 67.34375 -31.609375 C 67.59375 -30.929688 67.800781 -29.820312 67.96875 -28.28125 C 68.144531 -26.738281 67.984375 -25.050781 67.484375 -23.21875 C 66.992188 -21.394531 65.863281 -19.664062 64.09375 -18.03125 C 62.320312 -16.40625 59.632812 -15.132812 56.03125 -14.21875 C 51.238281 -13 47.5625 -12.691406 45 -13.296875 C 42.445312 -13.910156 40.601562 -15.066406 39.46875 -16.765625 C 38.34375 -18.472656 37.445312 -20.351562 36.78125 -22.40625 C 36.070312 -24.59375 35.625 -27.289062 35.4375 -30.5 C 35.25 -33.707031 35.191406 -37.128906 35.265625 -40.765625 C 35.347656 -44.410156 35.507812 -48.015625 35.75 -51.578125 C 35.988281 -55.148438 36.175781 -58.410156 36.3125 -61.359375 C 36.457031 -64.316406 36.472656 -66.722656 36.359375 -68.578125 C 36.253906 -70.441406 35.925781 -71.457031 35.375 -71.625 C 35.0625 -71.675781 34.867188 -71.691406 34.796875 -71.671875 C 34.035156 -71.484375 33.5 -70.476562 33.1875 -68.65625 C 32.875 -66.84375 32.640625 -64.625 32.484375 -62 C 32.335938 -59.382812 32.082031 -56.738281 31.71875 -54.0625 C 31.363281 -51.382812 30.769531 -49.070312 29.9375 -47.125 C 29.113281 -45.175781 27.867188 -43.988281 26.203125 -43.5625 C 24.253906 -43.070312 22.375 -43.460938 20.5625 -44.734375 C 18.757812 -46.015625 17.066406 -47.726562 15.484375 -49.875 C 13.910156 -52.03125 12.4375 -54.207031 11.0625 -56.40625 C 9.695312 -58.613281 8.425781 -60.4375 7.25 -61.875 C 6.070312 -63.320312 5 -63.921875 4.03125 -63.671875 C 3.957031 -63.648438 3.898438 -63.632812 3.859375 -63.625 C 3.828125 -63.613281 3.773438 -63.601562 3.703125 -63.59375 C 2.648438 -63.09375 2.617188 -61.972656 3.609375 -60.234375 C 4.609375 -58.492188 6.210938 -56.332031 8.421875 -53.75 C 10.640625 -51.164062 13.113281 -48.28125 15.84375 -45.09375 C 18.570312 -41.90625 21.128906 -38.597656 23.515625 -35.171875 C 25.898438 -31.742188 27.773438 -28.335938 29.140625 -24.953125 C 30.515625 -21.578125 30.96875 -18.351562 30.5 -15.28125 C 30.082031 -12.8125 29.082031 -10.835938 27.5 -9.359375 C 25.914062 -7.890625 24.007812 -6.738281 21.78125 -5.90625 C 19.550781 -5.082031 17.1875 -4.359375 14.6875 -3.734375 Z M 14.6875 -3.734375 "/></g></g></g><g fill="#fcfdf2" fill-opacity="1"><g transform="translate(137.151019, 215.925093)"><g><path d="M 5.96875 -40.296875 C 7 -48.765625 8.910156 -55.875 11.703125 -61.625 C 14.503906 -67.382812 17.984375 -71.632812 22.140625 -74.375 C 26.296875 -77.125 30.9375 -78.1875 36.0625 -77.5625 C 40.039062 -77.082031 43.46875 -75.65625 46.34375 -73.28125 C 49.226562 -70.914062 51.601562 -67.898438 53.46875 -64.234375 C 55.34375 -60.578125 56.707031 -56.515625 57.5625 -52.046875 C 58.425781 -47.578125 58.789062 -42.96875 58.65625 -38.21875 C 58.507812 -32.757812 57.6875 -27.445312 56.1875 -22.28125 C 54.695312 -17.125 52.582031 -12.507812 49.84375 -8.4375 C 47.113281 -4.375 43.773438 -1.265625 39.828125 0.890625 C 35.890625 3.046875 31.363281 3.8125 26.25 3.1875 C 22.46875 2.726562 19.191406 1.140625 16.421875 -1.578125 C 13.660156 -4.296875 11.394531 -7.742188 9.625 -11.921875 C 7.863281 -16.097656 6.664062 -20.660156 6.03125 -25.609375 C 5.40625 -30.566406 5.382812 -35.460938 5.96875 -40.296875 Z M 34.46875 -64.4375 C 33.113281 -64.601562 31.847656 -64.015625 30.671875 -62.671875 C 29.503906 -61.335938 28.476562 -59.566406 27.59375 -57.359375 C 26.71875 -55.160156 26.082031 -52.769531 25.6875 -50.1875 C 25.300781 -47.601562 25.234375 -45.140625 25.484375 -42.796875 C 25.742188 -40.453125 26.425781 -38.472656 27.53125 -36.859375 C 28.632812 -35.242188 30.21875 -34.3125 32.28125 -34.0625 C 34.132812 -33.84375 35.660156 -34.398438 36.859375 -35.734375 C 38.066406 -37.066406 38.96875 -38.847656 39.5625 -41.078125 C 40.164062 -43.316406 40.484375 -45.75 40.515625 -48.375 C 40.546875 -51.007812 40.328125 -53.507812 39.859375 -55.875 C 39.390625 -58.238281 38.707031 -60.210938 37.8125 -61.796875 C 36.925781 -63.390625 35.8125 -64.269531 34.46875 -64.4375 Z M 34.46875 -64.4375 "/></g></g></g><g fill="#fcfdf2" fill-opacity="1"><g transform="translate(212.325472, 223.98524)"><g><path d="M 8.703125 0.359375 C 6.628906 0.273438 5.050781 -0.21875 3.96875 -1.125 C 2.894531 -2.03125 2.191406 -3.148438 1.859375 -4.484375 C 1.523438 -5.828125 1.40625 -7.195312 1.5 -8.59375 C 1.59375 -9.988281 1.765625 -11.179688 2.015625 -12.171875 C 2.972656 -16.148438 4.410156 -20.035156 6.328125 -23.828125 C 8.242188 -27.617188 9.921875 -31.378906 11.359375 -35.109375 C 12.492188 -38.148438 13.535156 -41.140625 14.484375 -44.078125 C 15.429688 -47.015625 16.4375 -50 17.5 -53.03125 C 17.738281 -53.8125 18.207031 -55.316406 18.90625 -57.546875 C 19.613281 -59.773438 20.53125 -62.300781 21.65625 -65.125 C 22.78125 -67.945312 24.113281 -70.597656 25.65625 -73.078125 C 27.195312 -75.566406 28.953125 -77.410156 30.921875 -78.609375 C 32.398438 -79.546875 34.210938 -79.972656 36.359375 -79.890625 C 37.941406 -79.816406 39.453125 -79.441406 40.890625 -78.765625 C 42.328125 -78.097656 43.378906 -77.148438 44.046875 -75.921875 C 46.785156 -71.359375 48.75 -66.523438 49.9375 -61.421875 C 51.125 -56.316406 52.441406 -51.222656 53.890625 -46.140625 C 54.628906 -43.441406 55.703125 -40.46875 57.109375 -37.21875 C 58.515625 -33.976562 59.929688 -30.695312 61.359375 -27.375 C 62.796875 -24.050781 63.988281 -20.847656 64.9375 -17.765625 C 65.894531 -14.679688 66.359375 -11.914062 66.328125 -9.46875 C 66.316406 -7.675781 66.054688 -5.84375 65.546875 -3.96875 C 65.035156 -2.101562 64.253906 -0.546875 63.203125 0.703125 C 62.148438 1.953125 60.726562 2.539062 58.9375 2.46875 L 43.59375 1.828125 C 41.875 1.753906 40.582031 0.878906 39.71875 -0.796875 C 38.851562 -2.484375 38.296875 -4.640625 38.046875 -7.265625 C 37.796875 -9.890625 37.734375 -12.707031 37.859375 -15.71875 C 37.984375 -18.726562 38.191406 -21.585938 38.484375 -24.296875 C 38.785156 -27.015625 39.0625 -29.28125 39.3125 -31.09375 C 39.570312 -32.90625 39.671875 -33.960938 39.609375 -34.265625 C 39.503906 -34.835938 38.988281 -35.285156 38.0625 -35.609375 C 37.144531 -35.941406 36.078125 -36.132812 34.859375 -36.1875 C 33.640625 -36.238281 32.429688 -36.125 31.234375 -35.84375 C 30.035156 -35.570312 29.242188 -35.085938 28.859375 -34.390625 C 28.785156 -34.253906 28.941406 -33.296875 29.328125 -31.515625 C 29.722656 -29.742188 30.1875 -27.484375 30.71875 -24.734375 C 31.25 -21.992188 31.664062 -19.125 31.96875 -16.125 C 32.269531 -13.132812 32.3125 -10.316406 32.09375 -7.671875 C 31.882812 -5.035156 31.222656 -2.898438 30.109375 -1.265625 C 28.992188 0.367188 27.296875 1.140625 25.015625 1.046875 Z M 35.609375 -67.125 C 34.523438 -67.019531 33.578125 -66.269531 32.765625 -64.875 C 31.960938 -63.476562 31.335938 -61.785156 30.890625 -59.796875 C 30.453125 -57.804688 30.15625 -55.898438 30 -54.078125 C 29.851562 -52.253906 29.867188 -50.90625 30.046875 -50.03125 C 30.234375 -49.238281 30.765625 -48.609375 31.640625 -48.140625 C 32.523438 -47.671875 33.503906 -47.414062 34.578125 -47.375 C 35.796875 -47.320312 36.988281 -47.539062 38.15625 -48.03125 C 39.320312 -48.519531 40.03125 -49.226562 40.28125 -50.15625 C 40.53125 -51 40.601562 -52.351562 40.5 -54.21875 C 40.40625 -56.09375 40.144531 -58.039062 39.71875 -60.0625 C 39.300781 -62.082031 38.742188 -63.785156 38.046875 -65.171875 C 37.359375 -66.566406 36.546875 -67.21875 35.609375 -67.125 Z M 35.609375 -67.125 "/></g></g></g><g fill="#fcfdf2" fill-opacity="1"><g transform="translate(290.35607, 224.197652)"><g><path d="M 8.796875 -1.5 C 6.671875 -1.132812 4.703125 -1.6875 2.890625 -3.15625 C 1.078125 -4.632812 -0.191406 -7.414062 -0.921875 -11.5 C -1.660156 -15.59375 -1.429688 -21.375 -0.234375 -28.84375 C 0.378906 -32.507812 0.671875 -35.59375 0.640625 -38.09375 C 0.609375 -40.59375 0.445312 -42.78125 0.15625 -44.65625 C -0.125 -46.53125 -0.414062 -48.367188 -0.71875 -50.171875 C -1.03125 -51.972656 -1.21875 -53.957031 -1.28125 -56.125 C -1.34375 -57.21875 -0.960938 -58.378906 -0.140625 -59.609375 C 0.671875 -60.835938 2.238281 -61.648438 4.5625 -62.046875 C 6.113281 -62.304688 7.445312 -62.132812 8.5625 -61.53125 C 9.6875 -60.925781 10.546875 -60.160156 11.140625 -59.234375 C 11.835938 -58.117188 12.363281 -56.609375 12.71875 -54.703125 C 13.082031 -52.804688 13.664062 -50.472656 14.46875 -47.703125 C 15.269531 -44.929688 16.71875 -41.65625 18.8125 -37.875 C 20.820312 -34.21875 22.675781 -30.5 24.375 -26.71875 C 26.082031 -22.9375 27.25 -19.390625 27.875 -16.078125 C 28.507812 -12.773438 28.253906 -9.992188 27.109375 -7.734375 C 25.972656 -5.472656 23.578125 -4.03125 19.921875 -3.40625 Z M 3.59375 -65.78125 C 1.75 -65.46875 0.0625 -65.78125 -1.46875 -66.71875 C -3.007812 -67.65625 -3.921875 -68.941406 -4.203125 -70.578125 C -4.492188 -72.265625 -4.066406 -73.804688 -2.921875 -75.203125 C -1.785156 -76.597656 -0.296875 -77.453125 1.546875 -77.765625 C 3.453125 -78.097656 5.171875 -77.796875 6.703125 -76.859375 C 8.242188 -75.921875 9.160156 -74.609375 9.453125 -72.921875 C 9.734375 -71.285156 9.300781 -69.769531 8.15625 -68.375 C 7.019531 -66.976562 5.5 -66.113281 3.59375 -65.78125 Z M 3.59375 -65.78125 "/></g></g></g></svg>