<?xml version="1.0" encoding="UTF-8"?>
<svg id="_레이어_1" data-name="레이어_1" xmlns="http://www.w3.org/2000/svg" version="1.1" xmlns:xlink="http://www.w3.org/1999/xlink" viewBox="0 0 841.89 595.28">
  <!-- Generator: Adobe Illustrator 29.4.0, SVG Export Plug-In . SVG Version: 2.1.0 Build 152)  -->
  <defs>
    <style>
      .st0 {
        fill: #fff;
      }

      .st1 {
        fill: none;
      }

      .st2 {
        fill: #65abef;
        stroke: #fff;
        stroke-miterlimit: 10;
        stroke-width: 1.2px;
      }

      .st3 {
        clip-path: url(#clippath);
      }
    </style>
    <clipPath id="clippath">
      <circle class="st1" cx="429.7" cy="279.3" r="210.56"/>
    </clipPath>
  </defs>
  <g class="st3">
    <circle class="st2" cx="429.7" cy="279.3" r="212.45"/>
    <g>
      <path class="st0" d="M155.82,369.19c22.85-33.51,53.44-61.31,89.81-79.86,28.7-15.15,66.38-19.02,95.54-1.77,15.13,8.25,26.69,21.35,39.64,31.92,18.72,16.02,42.45,23.98,66.96,22.84,10.37-.3,20.84-1.38,31.16-2.75,10.47-1.27,20.94-3,31.22-5.31,13.05-2.99,26.87-6.77,39.64-10.67,3.28-1.03,7.59-2.37,10.9-3.33,3.56-1.2,7.25-2.43,10.84-3.57,48.01-15.54,91.61-37.43,136.9-60.76,0,0,7.83,9.6,7.83,9.6-8.3,10.46-17.62,20-27.45,29.04-14.74,13.54-31.08,25.71-48.15,36.26-21.67,13.19-44.87,24.28-69.12,31.79-21.09,6.54-43.24,10.4-65.24,12.1-27.91,2.4-56.72.21-82.56-11.5-19.02-8.71-35.4-20.74-50.89-34.2-9.53-8.12-19.23-16.54-30.63-21.16-21.46-8.72-44.25-.37-64.52,7.91-16.48,6.59-32.43,14.98-47.85,23.89-21.91,12.57-43.01,26.5-65.65,38.66,0,0-8.37-9.14-8.37-9.14h0Z"/>
      <path class="st0" d="M145.88,434.63c44.93-52.33,127.59-124.31,200.27-85.66,18.12,9.8,31.23,24.65,47.65,35.39,12.42,8.12,26.19,13.9,40.89,16.47,24.73,4.02,50.19,1.94,74.86-1.77,12.2-1.97,24.34-4.26,36.34-7.16,42.46-9.86,83.01-27.03,120.86-49.08,11.04-6.35,21.96-13.11,33.03-19.84,0,0,5.22,6.4,5.22,6.4-8.93,9.54-18.34,18.67-28.26,27.35-38.79,34.38-85.61,59.56-135.65,73.61-28.13,7.88-56.56,13.35-86.07,13.16-30.14.2-59.03-7.81-84.1-24.92-11.36-7.58-21.73-17.34-31.44-25.79-6.5-5.59-11.89-9.55-19.04-12.83-40.87-18.18-100.47,19.81-134.57,42.04-10.58,7.03-21.04,14.39-31.62,21.77,0,0-8.37-9.14-8.37-9.14h0Z"/>
      <path class="st0" d="M407.19,117.08l99.42,247.95c1.03,2.57-.86,5.36-3.63,5.36h-37.19c-1.61,0-3.05-.98-3.64-2.48l-42.57-108.36c-.59-1.5-2.03-2.48-3.64-2.48h-58.62c-1.58,0-3,.95-3.6,2.4l-13.8,33.02-38.7-2.66c-2.78,0-4.67-2.82-3.62-5.39l68.49-167.51c3.41-8.33,11.51-13.77,20.51-13.77h0c9.05,0,17.2,5.51,20.57,13.91ZM405.06,216.13l-14.72-39.96c-1.26-3.41-6.08-3.41-7.33,0l-14.72,39.96c-.94,2.55.95,5.26,3.67,5.26h29.45c2.72,0,4.61-2.71,3.67-5.26Z"/>
      <path class="st0" d="M553.49,183.23h0c0,10.06-8.15,18.21-18.21,18.21h-3.04c-10.06,0-18.21-8.15-18.21-18.21h0c0-10.06,8.15-18.21,18.21-18.21h3.04c10.06,0,18.21,8.15,18.21,18.21ZM553.49,227.53v110.84h-39.45v-110.84c0-8.12,6.59-14.71,14.71-14.71h10.03c8.12,0,14.71,6.59,14.71,14.71Z"/>
    </g>
  </g>
</svg>