<svg xmlns="http://www.w3.org/2000/svg" xmlns:xlink="http://www.w3.org/1999/xlink" width="48" zoomAndPan="magnify" viewBox="0 0 36 36.000001" height="48" preserveAspectRatio="xMidYMid meet" version="1.0"><defs><clipPath id="75162dbdd5"><path d="M 19 20 L 32.351562 20 L 32.351562 35.027344 L 19 35.027344 Z M 19 20 " clip-rule="nonzero"/></clipPath></defs><path fill="#e6e7e8" d="M 9.613281 4.441406 C 14.835938 0.722656 22.101562 1.921875 25.835938 7.117188 C 29.574219 12.3125 28.371094 19.535156 23.148438 23.253906 C 17.921875 26.96875 10.660156 25.769531 6.921875 20.574219 C 3.183594 15.378906 4.390625 8.15625 9.613281 4.441406 Z M 10.789062 6.074219 C 15.105469 3.003906 21.105469 3.992188 24.195312 8.285156 C 27.28125 12.578125 26.285156 18.546875 21.96875 21.617188 C 17.65625 24.6875 11.652344 23.699219 8.566406 19.40625 C 5.476562 15.113281 6.472656 9.144531 10.789062 6.074219 Z M 10.789062 6.074219 " fill-opacity="1" fill-rule="evenodd"/><g clip-path="url(#75162dbdd5)"><path fill="#e6e7e8" d="M 19.757812 23.300781 L 23.890625 20.578125 C 23.964844 20.527344 24.046875 20.515625 24.136719 20.539062 C 24.222656 20.558594 24.292969 20.609375 24.347656 20.691406 L 32.128906 32.398438 C 32.183594 32.476562 32.203125 32.5625 32.1875 32.652344 C 32.171875 32.742188 32.128906 32.808594 32.058594 32.859375 L 27.921875 35.582031 C 27.847656 35.628906 27.765625 35.644531 27.679688 35.621094 C 27.589844 35.597656 27.519531 35.546875 27.464844 35.46875 L 19.683594 23.761719 C 19.628906 23.683594 19.609375 23.597656 19.625 23.507812 C 19.640625 23.417969 19.683594 23.347656 19.757812 23.300781 Z M 19.757812 23.300781 " fill-opacity="1" fill-rule="evenodd"/></g><path fill="#e6e7e8" d="M 8.183594 11.140625 C 10.035156 8.476562 13.601562 5.648438 16.863281 5.316406 C 12.285156 4.390625 8.542969 8.453125 8.183594 11.140625 Z M 8.183594 11.140625 " fill-opacity="1" fill-rule="evenodd"/></svg>